<svg width="93" height="93" viewBox="0 0 93 93" fill="none" xmlns="http://www.w3.org/2000/svg">
<circle cx="46.5" cy="46.5" r="44.5" fill="#72F492" stroke="black" stroke-width="4"/>
<path d="M32.657 62.0507C31.5149 62.1707 30.4893 61.9738 29.5802 61.46C28.6712 60.9696 27.902 60.2419 27.2726 59.2768C26.6433 58.3117 26.1771 57.1653 25.8741 55.8378C25.5944 54.5078 25.4895 53.0775 25.5594 51.5467C25.6527 49.9197 25.8974 48.2299 26.2937 46.4773C26.6899 44.7013 27.226 42.9574 27.902 41.2458C28.5779 39.5341 29.3588 37.8934 30.2445 36.3238C31.1536 34.7517 32.1442 33.3585 33.2165 32.1442C34.312 30.9275 35.4774 29.9378 36.7128 29.1752C37.9482 28.3891 39.2419 27.925 40.5938 27.7829C41.4795 27.6898 42.2254 27.8341 42.8315 28.2157C43.4375 28.5973 43.9037 29.1342 44.23 29.8265C44.5796 30.4929 44.8011 31.2665 44.8943 32.1473C44.9876 33.0281 44.9759 33.92 44.8594 34.8229C44.7661 35.6998 44.568 36.5644 44.265 37.4166C43.9853 38.2428 43.6356 38.9358 43.2161 39.4956C42.68 40.2316 42.1905 40.6463 41.7476 40.7398C41.328 40.8073 40.9201 40.7213 40.5239 40.4817C40.3607 40.3582 40.1975 40.2113 40.0344 40.0409C39.8712 39.894 39.6964 39.7132 39.5099 39.4984C39.3234 39.2602 39.1253 38.9646 38.9155 38.6116C39.3584 38.401 39.7663 38.0886 40.1393 37.6744C40.5122 37.2368 40.8269 36.7584 41.0833 36.2393C41.363 35.7177 41.5728 35.18 41.7126 34.6262C41.8758 34.0466 41.969 33.486 41.9923 32.9445C42.0156 32.5202 42.004 32.1112 41.9574 31.7177C41.9108 31.3007 41.8175 30.9473 41.6777 30.6573C41.5378 30.3438 41.3397 30.1068 41.0833 29.9463C40.8502 29.7599 40.5472 29.6862 40.1742 29.7254C39.2419 29.8234 38.3328 30.2823 37.4471 31.1019C36.5613 31.8981 35.7222 32.9356 34.9297 34.2142C34.1605 35.4669 33.4379 36.8905 32.7619 38.485C32.1093 40.077 31.5382 41.7073 31.0487 43.376C30.5592 45.0446 30.163 46.68 29.8599 48.2822C29.5569 49.8843 29.3705 51.3336 29.3005 52.63C29.2073 54.257 29.2656 55.5634 29.4753 56.5492C29.6851 57.5349 29.9648 58.2907 30.3145 58.8164C30.6874 59.3632 31.0837 59.7082 31.5032 59.8516C31.9228 60.0185 32.3074 60.0835 32.657 60.0468C33.3097 59.9782 34.0439 59.5963 34.8598 58.9012C35.6756 58.2061 36.4564 57.292 37.2023 56.1589C37.9482 55.0492 38.6125 53.7841 39.1952 52.3635C39.8013 50.9404 40.2325 49.4654 40.4889 47.9385C39.9062 47.9997 39.3118 48.0739 38.7058 48.161C38.123 48.2223 37.5636 48.2928 37.0275 48.3726C36.4914 48.4524 36.0136 48.5377 35.594 48.6287C35.1744 48.6962 34.8481 48.7657 34.615 48.8371C34.4518 48.7839 34.3353 48.7141 34.2654 48.6277C34.2188 48.5389 34.1721 48.4383 34.1255 48.326C34.0789 48.2372 34.0556 48.1224 34.0556 47.9818C34.0556 47.8412 34.0789 47.7098 34.1255 47.5877C34.1721 47.4657 34.2304 47.3423 34.3003 47.2178C34.3703 47.0698 34.4635 46.9194 34.58 46.7665C35.3259 46.5475 36.0602 46.3532 36.7828 46.1835C37.5053 46.0138 38.2512 45.8651 39.0204 45.7373C39.8129 45.5837 40.6521 45.4487 41.5378 45.3321C42.4469 45.1897 43.4608 45.048 44.5796 44.9069C45.0458 44.8345 45.3255 44.8637 45.4188 44.9945C45.5353 45.1229 45.5004 45.4781 45.3139 46.0602C45.174 46.5202 44.9876 46.9031 44.7545 47.2089C44.5447 47.5122 44.1834 47.6673 43.6706 47.6744C43.5074 47.6915 43.3792 47.6933 43.286 47.6796C43.0762 49.0845 42.6333 50.5959 41.9574 52.2138C41.2814 53.8317 40.4539 55.3484 39.475 56.7638C38.496 58.1792 37.4121 59.3829 36.2233 60.3751C35.0579 61.3647 33.8691 61.9233 32.657 62.0507ZM65.2432 39.9578C65.1266 41.4466 64.8935 42.9594 64.5439 44.4961C64.1943 46.0094 63.7514 47.4857 63.2153 48.9248C62.7025 50.3615 62.0964 51.7143 61.3972 52.9831C60.6979 54.2753 59.917 55.4121 59.0546 56.3934C58.2155 57.3722 57.3064 58.1709 56.3274 58.7894C55.3718 59.4055 54.3695 59.7686 53.3206 59.8789C53.1108 59.9009 52.7845 59.8883 52.3416 59.8411C51.922 59.8149 51.4675 59.6752 50.978 59.4219C50.4885 59.1921 49.9874 58.8229 49.4746 58.3143C48.9851 57.8033 48.5539 57.0869 48.1809 56.1652C47.808 55.2668 47.5399 54.1231 47.3767 52.734C47.2136 51.3449 47.2136 49.6457 47.3767 47.6364C47.6565 44.4664 48.2275 41.5587 49.09 38.9134C49.9757 36.2421 50.978 33.9337 52.0968 31.9879C53.239 30.0398 54.4161 28.5098 55.6282 27.398C56.8402 26.2628 57.9125 25.6462 58.8448 25.5482C59.2178 25.509 59.5208 25.5592 59.7539 25.6988C60.0103 25.8125 60.2084 25.9791 60.3483 26.1988C60.5114 26.1348 60.6979 26.08 60.9077 26.0345C61.1175 25.9891 61.3506 25.9528 61.607 25.9259C62.2829 25.8548 62.8773 26.1439 63.3901 26.7932C63.9262 27.4399 64.3574 28.379 64.6838 29.6103C65.0334 30.8392 65.2548 32.3394 65.3481 34.1108C65.4646 35.8564 65.4296 37.8054 65.2432 39.9578ZM53.4255 57.8288C54.3345 57.7332 55.2669 57.1665 56.2225 56.1285C57.1782 55.0906 58.064 53.7319 58.8798 52.0524C59.6956 50.3494 60.3949 48.4009 60.9776 46.2069C61.5603 44.0128 61.9566 41.7095 62.1664 39.2968C62.213 38.6591 62.248 37.9288 62.2713 37.1061C62.2946 36.2833 62.2946 35.4513 62.2713 34.61C62.248 33.7687 62.1897 32.9428 62.0964 32.1323C62.0265 31.2959 61.9216 30.5686 61.7818 29.9505C61.6419 29.3324 61.4671 28.8351 61.2573 28.4587C61.0475 28.0823 60.8028 27.9089 60.5231 27.9382C60.2201 27.9935 59.917 28.1191 59.614 28.315C59.3576 28.4826 59.0546 28.7488 58.705 29.1137C58.3786 29.4527 58.0523 29.9206 57.726 30.5174C57.6561 30.4779 57.5978 30.4137 57.5512 30.3248C57.5279 30.2335 57.4929 30.1435 57.4463 30.0546C57.3997 29.9658 57.3647 29.864 57.3414 29.7492C57.2948 29.6838 57.2715 29.6042 57.2715 29.5105C57.2715 29.3933 57.2598 29.2656 57.2365 29.1274C56.7703 29.6921 56.2109 30.4891 55.5582 31.5187C54.9289 32.5223 54.2879 33.7616 53.6352 35.2364C53.0059 36.7088 52.4232 38.4341 51.8871 40.4123C51.3743 42.3647 51.013 44.5706 50.8032 47.0302C50.6167 49.206 50.5701 51.0039 50.6633 52.4238C50.7566 53.8437 50.9314 54.962 51.1878 55.7788C51.4675 56.5932 51.8055 57.1436 52.2017 57.43C52.598 57.74 53.0059 57.8729 53.4255 57.8288Z" fill="black"/>
<path d="M29.5802 61.46L29.8561 61.0149L29.8486 61.0109L29.5802 61.46ZM25.8741 55.8378L25.3871 55.9903L25.3889 55.9982L25.8741 55.8378ZM25.5594 51.5467L25.063 51.5699L25.0627 51.5758L25.5594 51.5467ZM26.2937 46.4773L26.778 46.5398L26.7783 46.5383L26.2937 46.4773ZM30.2445 36.3238L29.8217 36.105L29.8187 36.1103L30.2445 36.3238ZM33.2165 32.1442L32.8648 31.8276L32.8611 31.8318L33.2165 32.1442ZM36.7128 29.1752L36.9386 29.597L36.9451 29.5929L36.7128 29.1752ZM44.23 29.8265L43.7768 30.0799L43.7809 30.0885L43.7852 30.0969L44.23 29.8265ZM44.8594 34.8229L44.3662 34.8094L44.365 34.8211L44.8594 34.8229ZM44.265 37.4166L43.7988 37.2915L43.7961 37.2994L44.265 37.4166ZM43.2161 39.4956L42.8312 39.2194L42.8265 39.2258L43.2161 39.4956ZM41.7476 40.7398L41.7752 41.2361L41.7874 41.2341L41.7996 41.2315L41.7476 40.7398ZM40.5239 40.4817L40.2003 40.8953L40.218 40.9087L40.2371 40.9203L40.5239 40.4817ZM40.0344 40.0409L40.4086 39.6723L40.3977 39.6609L40.386 39.6504L40.0344 40.0409ZM39.5099 39.4984L39.1078 39.8347L39.1145 39.8433L39.1216 39.8515L39.5099 39.4984ZM38.9155 38.6116L38.7436 38.1605L38.196 38.4209L38.4821 38.9023L38.9155 38.6116ZM40.1393 37.6744L40.4909 37.991L40.4962 37.9851L40.5014 37.979L40.1393 37.6744ZM41.0833 36.2393L40.6515 36.0366L40.647 36.045L40.6428 36.0536L41.0833 36.2393ZM41.7126 34.6262L41.2353 34.5364L41.2333 34.5435L41.2315 34.5506L41.7126 34.6262ZM41.9923 32.9445L41.4958 32.969L41.4955 32.975L41.9923 32.9445ZM41.9574 31.7177L41.4631 31.8249L41.4635 31.828L41.9574 31.7177ZM41.6777 30.6573L41.2204 30.9024L41.2262 30.9142L41.6777 30.6573ZM41.0833 29.9463L40.7506 30.3529L40.7699 30.3683L40.7908 30.3814L41.0833 29.9463ZM37.4471 31.1019L37.7552 31.462L37.7614 31.4563L37.4471 31.1019ZM34.9297 34.2142L34.5159 33.9803L34.5147 33.9824L34.9297 34.2142ZM32.7619 38.485L32.3078 38.329L32.3052 38.3352L32.7619 38.485ZM29.3005 52.63L29.797 52.6068L29.7971 52.6051L29.3005 52.63ZM30.3145 58.8164L29.8928 59.1258L29.8956 59.13L30.3145 58.8164ZM31.5032 59.8516L31.7256 59.3811L31.7155 59.377L31.7052 59.3735L31.5032 59.8516ZM37.2023 56.1589L36.8001 55.9071L36.7971 55.9117L37.2023 56.1589ZM39.1952 52.3635L38.7414 52.2066L38.7386 52.2136L39.1952 52.3635ZM40.4889 47.9385L40.979 47.9716L41.0789 47.3764L40.4889 47.4385V47.9385ZM38.7058 48.161V48.661L38.7153 48.66L38.7249 48.6587L38.7058 48.161ZM35.594 48.6287L35.6216 49.125L35.6353 49.1228L35.6489 49.1199L35.594 48.6287ZM34.615 48.8371L34.4191 49.3172L34.5611 49.3635L34.7125 49.3171L34.615 48.8371ZM34.2654 48.6277L33.8206 48.8981L33.8407 48.9363L33.8676 48.9695L34.2654 48.6277ZM34.1255 48.326L34.5872 48.0918L34.5795 48.0733L34.5703 48.0557L34.1255 48.326ZM34.3003 47.2178L34.7267 47.4302L34.7366 47.4127L34.7451 47.3947L34.3003 47.2178ZM34.58 46.7665L34.4884 46.2847L34.3126 46.3364L34.198 46.4866L34.58 46.7665ZM39.0204 45.7373L39.0505 46.2334L39.0641 46.2308L39.0204 45.7373ZM41.5378 45.3321L41.5509 45.8307L41.5633 45.8288L41.5378 45.3321ZM44.5796 44.9069L44.59 45.4057L44.5972 45.4048L44.6045 45.4037L44.5796 44.9069ZM45.4188 44.9945L45.005 45.3154L45.0198 45.336L45.0368 45.3548L45.4188 44.9945ZM45.3139 46.0602L44.8421 45.9517L44.8397 45.9595L45.3139 46.0602ZM44.7545 47.2089L44.3725 46.9289L44.3643 46.9396L44.3567 46.9507L44.7545 47.2089ZM43.6706 47.6744L43.7156 47.1717L43.6931 47.172L43.6706 47.1744V47.6744ZM43.286 47.6796L43.4066 47.1819L42.8768 47.1044L42.7944 47.6559L43.286 47.6796ZM39.475 56.7638L39.0771 56.5056L39.475 56.7638ZM36.2233 60.3751L35.9313 60.001L35.9275 60.0042L36.2233 60.3751ZM32.657 61.5507C31.6084 61.6609 30.6796 61.4805 29.8561 61.015L29.3044 61.905C30.299 62.4672 31.4214 62.6805 32.657 62.5507V61.5507ZM29.8486 61.0109C29.0096 60.5582 28.2911 59.8826 27.6965 58.9707L26.8488 59.5828C27.5128 60.6011 28.3328 61.381 29.3119 61.9091L29.8486 61.0109ZM27.6965 58.9707C27.0998 58.0557 26.6521 56.9603 26.3593 55.6775L25.3889 55.9982C25.7021 57.3704 26.1868 58.5677 26.8488 59.5828L27.6965 58.9707ZM26.361 55.6853C26.0905 54.3991 25.988 53.0105 26.0562 51.5175L25.0627 51.5758C24.991 53.1444 25.0982 54.6166 25.3871 55.9903L26.361 55.6853ZM26.0558 51.5234C26.1473 49.9274 26.3876 48.2663 26.778 46.5398L25.8094 46.4148C25.4072 48.1935 25.158 49.912 25.063 51.5699L26.0558 51.5234ZM26.7783 46.5383C27.1684 44.79 27.696 43.0736 28.3614 41.3889L27.4426 41.1027C26.756 42.8412 26.2115 44.6126 25.809 46.4163L26.7783 46.5383ZM28.3614 41.3889C29.0281 39.7006 29.7978 38.0835 30.6703 36.5373L29.8187 36.1103C28.9198 37.7034 28.1278 39.3676 27.4426 41.1027L28.3614 41.3889ZM30.6674 36.5425C31.5595 34.9996 32.5282 33.6385 33.5718 32.4566L32.8611 31.8318C31.7603 33.0784 30.7477 34.5038 29.8217 36.105L30.6674 36.5425ZM33.5681 32.4608C34.631 31.2803 35.7548 30.3278 36.9385 29.597L36.4871 28.7534C35.2001 29.5479 33.993 30.5747 32.8648 31.8276L33.5681 32.4608ZM36.9451 29.5929C38.1114 28.8507 39.3256 28.4162 40.5938 28.2829V27.2829C39.1581 27.4338 37.785 27.9274 36.4805 28.7575L36.9451 29.5929ZM40.5938 28.2829C41.3936 28.1988 42.0318 28.3314 42.5381 28.6502L43.1249 27.7811C42.4191 27.3367 41.5654 27.1808 40.5938 27.2829V28.2829ZM42.5381 28.6502C43.0708 28.9857 43.4838 29.4583 43.7768 30.0799L44.6832 29.5731C44.3236 28.8102 43.8042 28.2089 43.1249 27.7811L42.5381 28.6502ZM43.7852 30.0969C44.1048 30.7059 44.3119 31.4216 44.3998 32.2516L45.3889 32.043C45.2902 31.1113 45.0545 30.2799 44.6748 29.5561L43.7852 30.0969ZM44.3998 32.2516C44.4889 33.0936 44.4778 33.946 44.3663 34.8094L45.3524 34.8363C45.474 33.894 45.4862 32.9626 45.3889 32.043L44.3998 32.2516ZM44.365 34.8211C44.2762 35.6563 44.0876 36.4795 43.7988 37.2915L44.7311 37.5417C45.0484 36.6494 45.2561 35.7434 45.3537 34.8246L44.365 34.8211ZM43.7961 37.2994C43.5306 38.0836 43.206 38.7194 42.8312 39.2194L43.6009 39.7717C44.0652 39.1523 44.4399 38.4021 44.7339 37.5337L43.7961 37.2994ZM42.8265 39.2258C42.3046 39.9423 41.9256 40.1994 41.6955 40.248L41.7996 41.2315C42.4553 41.0932 43.0553 40.5209 43.6057 39.7653L42.8265 39.2258ZM41.72 40.2434C41.4293 40.2902 41.1301 40.2362 40.8106 40.043L40.2371 40.9203C40.7102 41.2063 41.2268 41.3244 41.7752 41.2361L41.72 40.2434ZM40.8475 40.068C40.7048 39.9601 40.5584 39.8288 40.4086 39.6723L39.6601 40.4095C39.8367 40.5938 40.0166 40.7563 40.2003 40.8953L40.8475 40.068ZM40.386 39.6504C40.2389 39.518 40.0764 39.3504 39.8982 39.1452L39.1216 39.8515C39.3164 40.0759 39.5035 40.27 39.6828 40.4314L40.386 39.6504ZM39.9121 39.162C39.7401 38.9423 39.5523 38.6631 39.3489 38.321L38.4821 38.9023C38.6983 39.2661 38.9068 39.578 39.1078 39.8347L39.9121 39.162ZM39.0874 39.0627C39.6054 38.8164 40.0731 38.455 40.4909 37.991L39.7876 37.3578C39.4596 37.7222 39.1114 37.9856 38.7436 38.1605L39.0874 39.0627ZM40.5014 37.979C40.9058 37.5045 41.2467 36.986 41.5238 36.425L40.6428 36.0536C40.4071 36.5308 40.1186 36.9691 39.7772 37.3698L40.5014 37.979ZM41.515 36.442C41.8161 35.8806 42.0427 35.3002 42.1938 34.7019L41.2315 34.5506C41.1029 35.0598 40.9099 35.5548 40.6515 36.0366L41.515 36.442ZM42.19 34.7161C42.3634 34.1001 42.4639 33.4991 42.4891 32.914L41.4955 32.975C41.4741 33.473 41.3882 33.9931 41.2353 34.5364L42.19 34.7161ZM42.4888 32.9201C42.5136 32.4683 42.5014 32.0306 42.4512 31.6074L41.4635 31.828C41.5066 32.1919 41.5176 32.572 41.4958 32.969L42.4888 32.9201ZM42.4516 31.6105C42.4006 31.1541 42.2964 30.7471 42.1292 30.4003L41.2262 30.9142C41.3386 31.1474 41.4209 31.4474 41.4632 31.8249L42.4516 31.6105ZM42.1347 30.4123C41.9639 30.0295 41.713 29.7224 41.3758 29.5112L40.7908 30.3814C40.9664 30.4913 41.1117 30.6582 41.2206 30.9023L42.1347 30.4123ZM41.4159 29.5397C41.0748 29.2668 40.6455 29.1759 40.1742 29.2254V30.2254C40.4489 30.1966 40.6256 30.2529 40.7506 30.3529L41.4159 29.5397ZM40.1742 29.2254C39.1032 29.338 38.0865 29.8649 37.1327 30.7475L37.7614 31.4563C38.5791 30.6996 39.3806 30.3089 40.1742 30.2254V29.2254ZM37.1389 30.7419C36.203 31.5832 35.3301 32.6668 34.5159 33.9803L35.3434 34.448C36.1143 33.2043 36.9197 32.213 37.7552 31.462L37.1389 30.7419ZM34.5147 33.9824C33.728 35.2635 32.9929 36.7131 32.3078 38.329L33.216 38.641C33.8829 37.0679 34.5929 35.6703 35.3447 34.446L34.5147 33.9824ZM32.3052 38.3352C31.6451 39.9453 31.0678 41.5938 30.573 43.2804L31.5244 43.4716C32.0087 41.8209 32.5734 40.2087 33.2186 38.6348L32.3052 38.3352ZM30.573 43.2804C30.0788 44.9651 29.6783 46.6178 29.3718 48.2382L30.3481 48.3261C30.6477 46.7422 31.0397 45.1241 31.5244 43.4716L30.573 43.2804ZM29.3718 48.2382C29.0654 49.8581 28.8754 51.3309 28.804 52.655L29.7971 52.6051C29.8655 51.3363 30.0484 49.9105 30.3481 48.3261L29.3718 48.2382ZM28.8041 52.6533C28.7096 54.3023 28.7663 55.6578 28.9886 56.7027L29.9621 56.3956C29.7649 55.469 29.705 54.2117 29.797 52.6068L28.8041 52.6533ZM28.9886 56.7027C29.2045 57.7172 29.4999 58.5349 29.8928 59.1257L30.7362 58.5071C30.4298 58.0464 30.1657 57.3526 29.9621 56.3956L28.9886 56.7027ZM29.8956 59.13C30.2962 59.7172 30.7583 60.1442 31.3013 60.3298L31.7052 59.3735C31.4091 59.2723 31.0787 59.0092 30.7333 58.5029L29.8956 59.13ZM31.2809 60.3222C31.747 60.5076 32.2085 60.5939 32.657 60.5468V59.5468C32.4063 59.5731 32.0986 59.5294 31.7256 59.3811L31.2809 60.3222ZM32.657 60.5468C33.4612 60.4622 34.2994 60.0015 35.1563 59.2714L34.5632 58.531C33.7885 59.1911 33.1581 59.4941 32.657 59.5468V60.5468ZM35.1563 59.2714C36.0234 58.5326 36.8391 57.5734 37.6076 56.4061L36.7971 55.9117C36.0737 57.0106 35.3278 57.8795 34.5632 58.531L35.1563 59.2714ZM37.6045 56.4107C38.3751 55.2642 39.0569 53.964 39.6519 52.5134L38.7386 52.2136C38.1682 53.6042 37.5213 54.8343 36.8002 55.9071L37.6045 56.4107ZM39.649 52.5203C40.2725 51.0563 40.7157 49.5397 40.979 47.9716L39.9988 47.9053C39.7493 49.3911 39.3301 50.8245 38.7415 52.2067L39.649 52.5203ZM40.4889 47.4385C39.8995 47.5004 39.2988 47.5754 38.6866 47.6634L38.7249 48.6587C39.3248 48.5724 39.9128 48.499 40.4889 48.4385V47.4385ZM38.7058 47.661C38.1164 47.723 37.5498 47.7944 37.0059 47.8753L37.0491 48.8698C37.5774 48.7912 38.1296 48.7216 38.7058 48.661V47.661ZM37.0059 47.8753C36.4615 47.9563 35.9722 48.0436 35.5391 48.1375L35.6489 49.1199C36.0549 49.0319 36.5213 48.9484 37.0491 48.8698L37.0059 47.8753ZM35.5664 48.1324C35.1382 48.2013 34.7847 48.2752 34.5175 48.357L34.7125 49.3171C34.9115 49.2562 35.2106 49.1912 35.6216 49.125L35.5664 48.1324ZM34.8109 48.3569C34.7533 48.3382 34.7148 48.3199 34.6904 48.3053C34.666 48.2907 34.6605 48.2826 34.6632 48.2859L33.8676 48.9695C34.0102 49.1457 34.2144 49.2505 34.4191 49.3172L34.8109 48.3569ZM34.7101 48.3574C34.6708 48.2824 34.6297 48.1942 34.5872 48.0918L33.6638 48.5602C33.7146 48.6825 33.7667 48.7954 33.8206 48.8981L34.7101 48.3574ZM34.5703 48.0557C34.5679 48.0512 34.5528 48.0178 34.5528 47.9295L33.5583 48.0341C33.5583 48.227 33.5899 48.4232 33.6808 48.5964L34.5703 48.0557ZM34.5528 47.9295C34.5528 47.8453 34.5666 47.7788 34.5872 47.7249L33.6638 47.4506C33.5912 47.6408 33.5583 47.8371 33.5583 48.0341L34.5528 47.9295ZM34.5872 47.7249C34.6232 47.6306 34.6693 47.5325 34.7267 47.4302L33.8739 47.0054C33.7915 47.1522 33.7211 47.3007 33.6638 47.4506L34.5872 47.7249ZM34.7451 47.3947C34.7953 47.2883 34.8661 47.1723 34.962 47.0465L34.198 46.4866C34.0608 46.6665 33.9452 46.8513 33.8556 47.0409L34.7451 47.3947ZM34.6717 47.2483C35.4087 47.0319 36.1336 46.8401 36.8464 46.6727L36.7191 45.6943C35.9868 45.8662 35.2432 46.0631 34.4884 46.2847L34.6717 47.2483ZM36.8464 46.6727C37.5572 46.5057 38.2919 46.3592 39.0505 46.2333L38.9903 45.2414C38.2106 45.3709 37.4535 45.5218 36.7191 45.6943L36.8464 46.6727ZM39.0641 46.2308C39.8454 46.0794 40.6742 45.9459 41.5509 45.8306L41.5247 44.8337C40.6299 44.9514 39.7805 45.0881 38.9767 45.2439L39.0641 46.2308ZM41.5633 45.8288C42.4663 45.6873 43.4751 45.5463 44.59 45.4057L44.5693 44.4081C43.4465 44.5497 42.4274 44.6921 41.5123 44.8355L41.5633 45.8288ZM44.6045 45.4037C44.8183 45.3705 44.9571 45.3662 45.0376 45.3747C45.0766 45.3787 45.0871 45.3844 45.0806 45.3815C45.0727 45.3782 45.0377 45.3612 45.005 45.3154L45.8325 44.6737C45.677 44.4554 45.4245 44.3936 45.2405 44.3744C45.0414 44.3536 44.8071 44.371 44.5548 44.4102L44.6045 45.4037ZM45.0368 45.3548C44.9925 45.306 44.9865 45.2627 44.9873 45.2671C44.9879 45.271 44.9912 45.2983 44.9852 45.3595C44.973 45.4832 44.9304 45.6761 44.8421 45.9517L45.7856 46.1688C45.8838 45.8623 45.952 45.5865 45.9748 45.355C45.9946 45.1536 45.9956 44.8489 45.8008 44.6343L45.0368 45.3548ZM44.8397 45.9595C44.7142 46.3724 44.5545 46.6902 44.3725 46.9289L45.1365 47.4888C45.4206 47.1161 45.6339 46.6681 45.7881 46.161L44.8397 45.9595ZM44.3567 46.9507C44.2941 47.0412 44.1445 47.1658 43.7156 47.1717L43.6256 48.177C44.2223 48.1689 44.7953 47.9832 45.1523 47.4671L44.3567 46.9507ZM43.6706 47.1744C43.5241 47.1898 43.4424 47.1871 43.4066 47.1819L43.1654 48.1774C43.316 48.1994 43.4908 48.1933 43.6706 48.1744V47.1744ZM42.7944 47.6559C42.5924 49.0087 42.1641 50.4762 41.5021 52.0605L42.4126 52.3671C43.1026 50.7156 43.56 49.1602 43.7776 47.7034L42.7944 47.6559ZM41.5021 52.0605C40.841 53.6429 40.0326 55.1242 39.0771 56.5056L39.8728 57.022C40.8753 55.5726 41.7218 54.0206 42.4126 52.3671L41.5021 52.0605ZM39.0771 56.5056C38.1247 57.8826 37.0756 59.046 35.9313 60.001L36.5153 60.7491C37.7486 59.7198 38.8672 58.4758 39.8728 57.022L39.0771 56.5056ZM35.9275 60.0042C34.8304 60.9359 33.743 61.4365 32.657 61.5507V62.5507C33.9953 62.41 35.2853 61.7936 36.5191 60.7459L35.9275 60.0042ZM65.2432 39.9578L64.7478 39.966L64.7475 39.9703L65.2432 39.9578ZM64.5439 44.4961L65.0276 44.5611L65.028 44.5593L64.5439 44.4961ZM63.2153 48.9248L62.7519 48.7919L62.7494 48.7991L63.2153 48.9248ZM61.3972 52.9831L60.9685 52.7746L60.9664 52.7785L61.3972 52.9831ZM59.0546 56.3934L58.6983 56.082L58.6936 56.0874L59.0546 56.3934ZM56.3274 58.7894L56.0967 58.3707L56.0923 58.3735L56.3274 58.7894ZM52.3416 59.8411L52.444 59.3411L52.4337 59.34L52.4233 59.3393L52.3416 59.8411ZM50.978 59.4219L51.2397 58.9693L51.2323 58.9655L51.2247 58.9619L50.978 59.4219ZM49.4746 58.3143L49.1002 58.683L49.108 58.6907L49.4746 58.3143ZM48.1809 56.1652L48.6442 55.9347L48.6426 55.9309L48.1809 56.1652ZM47.3767 47.6364L46.8814 47.6438L46.8812 47.6474L47.3767 47.6364ZM49.09 38.9134L48.6199 38.7995L48.6191 38.8021L49.09 38.9134ZM52.0968 31.9879L51.6757 31.7662L51.6733 31.7704L52.0968 31.9879ZM55.6282 27.398L55.9406 27.7542L55.9451 27.7501L55.6282 27.398ZM59.7539 25.6988L59.4687 26.1384L59.4914 26.152L59.5158 26.1628L59.7539 25.6988ZM60.3483 26.1988L59.9219 26.5009L60.1181 26.8091L60.4849 26.6652L60.3483 26.1988ZM63.3901 26.7932L62.989 27.1311L62.9955 27.1389L63.3901 26.7932ZM64.6838 29.6103L64.2023 29.7864L64.2046 29.7945L64.6838 29.6103ZM65.3481 34.1108L64.8514 34.1893L64.8519 34.1962L65.3481 34.1108ZM58.8798 52.0524L59.3219 52.2347L59.3233 52.2319L58.8798 52.0524ZM62.1664 39.2968L62.6618 39.2887L62.6623 39.2816L62.1664 39.2968ZM62.0964 32.1323L61.6009 32.2259L61.6015 32.2334L61.6024 32.241L62.0964 32.1323ZM60.5231 27.9382V27.4382L60.504 27.4403L60.4849 27.4437L60.5231 27.9382ZM59.614 28.315L59.3783 27.8996L59.3759 27.9011L59.614 28.315ZM58.705 29.1137L59.0433 29.4445L59.0443 29.4436L58.705 29.1137ZM57.726 30.5174L57.4502 30.9624L57.8895 31.2107L58.1555 30.7242L57.726 30.5174ZM57.5512 30.3248L57.0688 30.4968L57.082 30.5487L57.1064 30.5952L57.5512 30.3248ZM57.3414 29.7492L57.829 29.5999L57.8097 29.5049L57.7551 29.4284L57.3414 29.7492ZM57.2365 29.1274L57.727 28.9937L57.5584 27.9943L56.8686 28.8298L57.2365 29.1274ZM55.5582 31.5187L55.1476 31.2798L55.1461 31.2823L55.5582 31.5187ZM53.6352 35.2364L53.1846 35.0723L53.1818 35.0789L53.6352 35.2364ZM51.8871 40.4123L51.4083 40.3276L51.4072 40.3317L51.8871 40.4123ZM50.8032 47.0302L51.2986 47.0214L51.2986 47.0212L50.8032 47.0302ZM51.1878 55.7788L50.7121 55.975L50.716 55.9865L51.1878 55.7788ZM52.2017 57.43L52.5307 57.0205L52.5244 57.0156L52.5178 57.0109L52.2017 57.43ZM64.7475 39.9703C64.633 41.4328 64.4039 42.9203 64.0598 44.4329L65.028 44.5593C65.3832 42.9985 65.6203 41.4603 65.7389 39.9452L64.7475 39.9703ZM64.0602 44.4311C63.7157 45.922 63.2796 47.3756 62.752 48.7919L63.6786 49.0577C64.2232 47.5958 64.6728 46.0968 65.0276 44.5611L64.0602 44.4311ZM62.7494 48.7991C62.246 50.2092 61.6522 51.5341 60.9686 52.7746L61.8258 53.1916C62.5407 51.8944 63.1589 50.5138 63.6812 49.0505L62.7494 48.7991ZM60.9664 52.7785C60.2851 54.0375 59.5285 55.1375 58.6983 56.082L59.4109 56.7047C60.3056 55.6867 61.1106 54.5131 61.8279 53.1877L60.9664 52.7785ZM58.6936 56.0874C57.8883 57.0268 57.0224 57.7859 56.0967 58.3707L56.5582 59.2081C57.5905 58.5558 58.5427 57.7175 59.4156 56.6993L58.6936 56.0874ZM56.0923 58.3735C55.2064 58.9446 54.2846 59.2775 53.3206 59.3789V60.3789C54.4544 60.2597 55.5371 59.8663 56.5626 59.2053L56.0923 58.3735ZM53.3206 59.3789C53.166 59.3951 52.8826 59.3878 52.444 59.3411L52.2391 60.3412C52.6863 60.3888 53.0556 60.4067 53.3206 60.3789V59.3789ZM52.4233 59.3393C52.0858 59.3183 51.6925 59.2035 51.2397 58.9693L50.7163 59.8746C51.2425 60.1468 51.7582 60.3116 52.2598 60.3429L52.4233 59.3393ZM51.2247 58.9619C50.7923 58.7589 50.3304 58.4232 49.8411 57.9379L49.108 58.6907C49.6444 59.2227 50.1847 59.6254 50.7313 59.882L51.2247 58.9619ZM49.8488 57.9458C49.4086 57.4862 49.0035 56.8229 48.6441 55.9347L47.7177 56.3956C48.1042 57.3509 48.5615 58.1204 49.1003 58.6829L49.8488 57.9458ZM48.6426 55.9309C48.291 55.0841 48.0306 53.9859 47.8707 52.6242L46.8828 52.8439C47.0492 54.2604 47.3249 55.4496 47.7192 56.3994L48.6426 55.9309ZM47.8707 52.6242C47.7125 51.2778 47.7109 49.6138 47.8723 47.6253L46.8812 47.6474C46.7163 49.6776 46.7147 51.4121 46.8828 52.8439L47.8707 52.6242ZM47.872 47.6289C48.1488 44.4923 48.713 41.6251 49.5608 39.0246L48.6191 38.8021C47.742 41.4923 47.1641 44.4404 46.8815 47.6438L47.872 47.6289ZM49.56 39.0272C50.4369 36.3827 51.4249 34.1106 52.5203 32.2055L51.6733 31.7704C50.5311 33.7567 49.5145 36.1016 48.62 38.7995L49.56 39.0272ZM52.5179 32.2097C53.6411 30.2939 54.784 28.8151 55.9406 27.7542L55.3157 27.0419C54.0482 28.2046 52.8369 29.7857 51.6758 31.7662L52.5179 32.2097ZM55.9451 27.7501C57.1241 26.6458 58.0845 26.1282 58.8448 26.0482V25.0482C57.7405 25.1643 56.5564 25.8799 55.3113 27.046L55.9451 27.7501ZM58.8448 26.0482C59.1472 26.0165 59.3417 26.0623 59.4687 26.1384L60.039 25.2592C59.6999 25.0561 59.2884 25.0016 58.8448 25.0482V26.0482ZM59.5158 26.1628C59.7004 26.2446 59.8309 26.3581 59.9219 26.5009L60.7747 25.8967C60.5859 25.6002 60.3201 25.3803 59.992 25.2348L59.5158 26.1628ZM60.4849 26.6652C60.6158 26.6138 60.7741 26.5666 60.9626 26.5257L60.8528 25.5434C60.6217 25.5935 60.4071 25.6557 60.2117 25.7324L60.4849 26.6652ZM60.9626 26.5257C61.1508 26.4849 61.3652 26.4513 61.607 26.4259V25.4259C61.3359 25.4544 61.0842 25.4932 60.8528 25.5434L60.9626 26.5257ZM61.607 26.4259C62.0808 26.3761 62.5407 26.5633 62.9891 27.131L63.7911 26.4553C63.2139 25.7245 62.485 25.3336 61.607 25.4259V26.4259ZM62.9955 27.1389C63.4766 27.7193 63.8855 28.5908 64.2024 29.7864L65.1651 29.4342C64.8293 28.1672 64.3759 27.1606 63.7847 26.4475L62.9955 27.1389ZM64.2046 29.7945C64.5418 30.9796 64.7595 32.4421 64.8515 34.1893L65.8446 34.0323C65.7501 32.2366 65.525 30.6987 65.1629 29.4261L64.2046 29.7945ZM64.8519 34.1962C64.9664 35.9116 64.9325 37.8342 64.7478 39.966L65.7385 39.9495C65.9268 37.7765 65.9628 35.8012 65.8442 34.0254L64.8519 34.1962ZM53.4255 58.3288C54.5142 58.2143 55.5645 57.5418 56.5698 56.4499L55.8753 55.8071C54.9693 56.7912 54.1548 57.2521 53.4255 57.3288V58.3288ZM56.5698 56.4499C57.5742 55.359 58.4893 53.9489 59.3219 52.2347L58.4377 51.87C57.6387 53.5149 56.7822 54.8221 55.8753 55.8071L56.5698 56.4499ZM59.3233 52.2319C60.157 50.4915 60.8674 48.5093 61.4571 46.2889L60.4981 46.1248C59.9224 48.2925 59.2342 50.2074 58.4363 51.8728L59.3233 52.2319ZM61.4571 46.2889C62.0484 44.0627 62.4495 41.729 62.6617 39.2887L61.671 39.3049C61.4637 41.6899 61.0723 43.963 60.4981 46.1248L61.4571 46.2889ZM62.6623 39.2816C62.7096 38.6345 62.7449 37.8964 62.7683 37.0681L61.7742 37.144C61.7511 37.9613 61.7164 38.6837 61.6705 39.312L62.6623 39.2816ZM62.7683 37.0681C62.7919 36.2357 62.7919 35.3942 62.7683 34.5438L61.7742 34.6761C61.7972 35.5083 61.7972 36.3309 61.7742 37.144L62.7683 37.0681ZM62.7683 34.5438C62.7446 33.6886 62.6854 32.8485 62.5905 32.0236L61.6024 32.241C61.694 33.0371 61.7513 33.8488 61.7742 34.6761L62.7683 34.5438ZM62.592 32.0387C62.5207 31.1863 62.4131 30.436 62.2672 29.791L61.2963 30.11C61.4301 30.7012 61.5323 31.4054 61.6009 32.2259L62.592 32.0387ZM62.2672 29.791C62.1215 29.1471 61.9343 28.6048 61.6968 28.1786L60.8178 28.7389C60.9999 29.0655 61.1623 29.5176 61.2963 30.11L62.2672 29.791ZM61.6968 28.1786C61.4566 27.7477 61.0816 27.3796 60.5231 27.4382V28.4382C60.5347 28.437 60.5579 28.4355 60.6035 28.4678C60.6566 28.5055 60.732 28.5849 60.8178 28.7389L61.6968 28.1786ZM60.4849 27.4437C60.1041 27.5132 59.7343 27.6694 59.3783 27.8996L59.8498 28.7305C60.0998 28.5689 60.336 28.4739 60.5612 28.4328L60.4849 27.4437ZM59.3759 27.9011C59.0671 28.103 58.7291 28.4046 58.3657 28.7838L59.0443 29.4436C59.3801 29.0931 59.6482 28.8623 59.8521 28.729L59.3759 27.9011ZM58.3666 28.7829C57.9922 29.1718 57.6373 29.6873 57.2965 30.3106L58.1555 30.7242C58.4673 30.1539 58.765 29.7336 59.0433 29.4445L58.3666 28.7829ZM58.0018 30.0724C58.0098 30.0769 58.0129 30.0805 58.0118 30.0794C58.0105 30.0779 58.0045 30.0708 57.9959 30.0545L57.1064 30.5952C57.1825 30.7402 57.2928 30.8735 57.4502 30.9624L58.0018 30.0724ZM58.0336 30.1529C58.0008 30.0243 57.9525 29.9014 57.891 29.7842L57.0015 30.325C57.0333 30.3855 57.0549 30.4427 57.0688 30.4968L58.0336 30.1529ZM57.891 29.7842C57.8667 29.7379 57.8448 29.6778 57.829 29.5999L56.8538 29.8985C56.8846 30.0501 56.9326 30.1936 57.0015 30.325L57.891 29.7842ZM57.7551 29.4284C57.7606 29.4361 57.7647 29.4449 57.7671 29.4529C57.7693 29.4605 57.7687 29.4632 57.7687 29.4582L56.7742 29.5627C56.7742 29.744 56.8207 29.92 56.9276 30.0701L57.7551 29.4284ZM57.7687 29.4582C57.7687 29.3083 57.7539 29.153 57.727 28.9937L56.746 29.2612C56.7657 29.3782 56.7742 29.4782 56.7742 29.5627L57.7687 29.4582ZM56.8686 28.8298C56.3801 29.4214 55.8059 30.2415 55.1476 31.2798L55.9689 31.7575C56.6159 30.7368 57.1605 29.9627 57.6044 29.4251L56.8686 28.8298ZM55.1461 31.2823C54.4979 32.3159 53.8446 33.581 53.1846 35.0723L54.0858 35.4005C54.7312 33.9421 55.3599 32.7287 55.9704 31.7551L55.1461 31.2823ZM53.1818 35.0789C52.5398 36.5808 51.9492 38.3315 51.4083 40.3276L52.3658 40.497C52.8971 38.5367 53.472 36.8368 54.0887 35.3939L53.1818 35.0789ZM51.4072 40.3317C50.885 42.3198 50.5195 44.5565 50.3078 47.0391L51.2986 47.0212C51.5064 44.5847 51.8635 42.4096 52.3669 40.493L51.4072 40.3317ZM50.3078 47.0389C50.1201 49.2288 50.0716 51.0544 50.1671 52.5086L51.1595 52.3389C51.0685 50.9534 51.1133 49.1832 51.2986 47.0214L50.3078 47.0389ZM50.1671 52.5086C50.2615 53.9462 50.4399 55.1073 50.7122 55.9749L51.6633 55.5827C51.4229 54.8167 51.2516 53.7411 51.1595 52.3389L50.1671 52.5086ZM50.716 55.9865C51.0065 56.8321 51.382 57.4852 51.8856 57.8492L52.5178 57.0109C52.2289 56.802 51.9285 56.3542 51.6595 55.5711L50.716 55.9865ZM51.8727 57.8395C52.3354 58.2014 52.8557 58.3886 53.4255 58.3288V57.3288C53.156 57.3571 52.8605 57.2785 52.5307 57.0205L51.8727 57.8395Z" fill="black"/>
</svg>
