<?xml version="1.0" encoding="UTF-8" standalone="yes"?>
<!DOCTYPE svg PUBLIC "-//W3C//DTD SVG 1.0//EN" "http://www.w3.org/TR/2001/REC-SVG-20010904/DTD/svg10.dtd">
<svg width="450" height="450" xmlns="http://www.w3.org/2000/svg" xmlns:xlink="http://www.w3.org/1999/xlink">
<g id="quickmark" fill="black" transform="translate(40,40)">
<rect x="0" y="0" width="10" height="10"/>
<rect x="10" y="0" width="10" height="10"/>
<rect x="20" y="0" width="10" height="10"/>
<rect x="30" y="0" width="10" height="10"/>
<rect x="40" y="0" width="10" height="10"/>
<rect x="50" y="0" width="10" height="10"/>
<rect x="60" y="0" width="10" height="10"/>
<rect x="80" y="0" width="10" height="10"/>
<rect x="90" y="0" width="10" height="10"/>
<rect x="110" y="0" width="10" height="10"/>
<rect x="120" y="0" width="10" height="10"/>
<rect x="140" y="0" width="10" height="10"/>
<rect x="150" y="0" width="10" height="10"/>
<rect x="160" y="0" width="10" height="10"/>
<rect x="180" y="0" width="10" height="10"/>
<rect x="190" y="0" width="10" height="10"/>
<rect x="220" y="0" width="10" height="10"/>
<rect x="240" y="0" width="10" height="10"/>
<rect x="250" y="0" width="10" height="10"/>
<rect x="260" y="0" width="10" height="10"/>
<rect x="270" y="0" width="10" height="10"/>
<rect x="280" y="0" width="10" height="10"/>
<rect x="300" y="0" width="10" height="10"/>
<rect x="310" y="0" width="10" height="10"/>
<rect x="320" y="0" width="10" height="10"/>
<rect x="330" y="0" width="10" height="10"/>
<rect x="340" y="0" width="10" height="10"/>
<rect x="350" y="0" width="10" height="10"/>
<rect x="360" y="0" width="10" height="10"/>
<rect x="0" y="10" width="10" height="10"/>
<rect x="60" y="10" width="10" height="10"/>
<rect x="100" y="10" width="10" height="10"/>
<rect x="120" y="10" width="10" height="10"/>
<rect x="130" y="10" width="10" height="10"/>
<rect x="150" y="10" width="10" height="10"/>
<rect x="170" y="10" width="10" height="10"/>
<rect x="180" y="10" width="10" height="10"/>
<rect x="200" y="10" width="10" height="10"/>
<rect x="210" y="10" width="10" height="10"/>
<rect x="220" y="10" width="10" height="10"/>
<rect x="300" y="10" width="10" height="10"/>
<rect x="360" y="10" width="10" height="10"/>
<rect x="0" y="20" width="10" height="10"/>
<rect x="20" y="20" width="10" height="10"/>
<rect x="30" y="20" width="10" height="10"/>
<rect x="40" y="20" width="10" height="10"/>
<rect x="60" y="20" width="10" height="10"/>
<rect x="130" y="20" width="10" height="10"/>
<rect x="140" y="20" width="10" height="10"/>
<rect x="150" y="20" width="10" height="10"/>
<rect x="160" y="20" width="10" height="10"/>
<rect x="170" y="20" width="10" height="10"/>
<rect x="180" y="20" width="10" height="10"/>
<rect x="190" y="20" width="10" height="10"/>
<rect x="200" y="20" width="10" height="10"/>
<rect x="210" y="20" width="10" height="10"/>
<rect x="230" y="20" width="10" height="10"/>
<rect x="260" y="20" width="10" height="10"/>
<rect x="270" y="20" width="10" height="10"/>
<rect x="280" y="20" width="10" height="10"/>
<rect x="300" y="20" width="10" height="10"/>
<rect x="320" y="20" width="10" height="10"/>
<rect x="330" y="20" width="10" height="10"/>
<rect x="340" y="20" width="10" height="10"/>
<rect x="360" y="20" width="10" height="10"/>
<rect x="0" y="30" width="10" height="10"/>
<rect x="20" y="30" width="10" height="10"/>
<rect x="30" y="30" width="10" height="10"/>
<rect x="40" y="30" width="10" height="10"/>
<rect x="60" y="30" width="10" height="10"/>
<rect x="80" y="30" width="10" height="10"/>
<rect x="90" y="30" width="10" height="10"/>
<rect x="110" y="30" width="10" height="10"/>
<rect x="120" y="30" width="10" height="10"/>
<rect x="130" y="30" width="10" height="10"/>
<rect x="140" y="30" width="10" height="10"/>
<rect x="190" y="30" width="10" height="10"/>
<rect x="200" y="30" width="10" height="10"/>
<rect x="220" y="30" width="10" height="10"/>
<rect x="230" y="30" width="10" height="10"/>
<rect x="240" y="30" width="10" height="10"/>
<rect x="250" y="30" width="10" height="10"/>
<rect x="260" y="30" width="10" height="10"/>
<rect x="280" y="30" width="10" height="10"/>
<rect x="300" y="30" width="10" height="10"/>
<rect x="320" y="30" width="10" height="10"/>
<rect x="330" y="30" width="10" height="10"/>
<rect x="340" y="30" width="10" height="10"/>
<rect x="360" y="30" width="10" height="10"/>
<rect x="0" y="40" width="10" height="10"/>
<rect x="20" y="40" width="10" height="10"/>
<rect x="30" y="40" width="10" height="10"/>
<rect x="40" y="40" width="10" height="10"/>
<rect x="60" y="40" width="10" height="10"/>
<rect x="80" y="40" width="10" height="10"/>
<rect x="100" y="40" width="10" height="10"/>
<rect x="140" y="40" width="10" height="10"/>
<rect x="180" y="40" width="10" height="10"/>
<rect x="200" y="40" width="10" height="10"/>
<rect x="210" y="40" width="10" height="10"/>
<rect x="230" y="40" width="10" height="10"/>
<rect x="260" y="40" width="10" height="10"/>
<rect x="270" y="40" width="10" height="10"/>
<rect x="280" y="40" width="10" height="10"/>
<rect x="300" y="40" width="10" height="10"/>
<rect x="320" y="40" width="10" height="10"/>
<rect x="330" y="40" width="10" height="10"/>
<rect x="340" y="40" width="10" height="10"/>
<rect x="360" y="40" width="10" height="10"/>
<rect x="0" y="50" width="10" height="10"/>
<rect x="60" y="50" width="10" height="10"/>
<rect x="80" y="50" width="10" height="10"/>
<rect x="100" y="50" width="10" height="10"/>
<rect x="110" y="50" width="10" height="10"/>
<rect x="140" y="50" width="10" height="10"/>
<rect x="180" y="50" width="10" height="10"/>
<rect x="190" y="50" width="10" height="10"/>
<rect x="200" y="50" width="10" height="10"/>
<rect x="210" y="50" width="10" height="10"/>
<rect x="220" y="50" width="10" height="10"/>
<rect x="240" y="50" width="10" height="10"/>
<rect x="250" y="50" width="10" height="10"/>
<rect x="280" y="50" width="10" height="10"/>
<rect x="300" y="50" width="10" height="10"/>
<rect x="360" y="50" width="10" height="10"/>
<rect x="0" y="60" width="10" height="10"/>
<rect x="10" y="60" width="10" height="10"/>
<rect x="20" y="60" width="10" height="10"/>
<rect x="30" y="60" width="10" height="10"/>
<rect x="40" y="60" width="10" height="10"/>
<rect x="50" y="60" width="10" height="10"/>
<rect x="60" y="60" width="10" height="10"/>
<rect x="80" y="60" width="10" height="10"/>
<rect x="100" y="60" width="10" height="10"/>
<rect x="120" y="60" width="10" height="10"/>
<rect x="140" y="60" width="10" height="10"/>
<rect x="160" y="60" width="10" height="10"/>
<rect x="180" y="60" width="10" height="10"/>
<rect x="200" y="60" width="10" height="10"/>
<rect x="220" y="60" width="10" height="10"/>
<rect x="240" y="60" width="10" height="10"/>
<rect x="260" y="60" width="10" height="10"/>
<rect x="280" y="60" width="10" height="10"/>
<rect x="300" y="60" width="10" height="10"/>
<rect x="310" y="60" width="10" height="10"/>
<rect x="320" y="60" width="10" height="10"/>
<rect x="330" y="60" width="10" height="10"/>
<rect x="340" y="60" width="10" height="10"/>
<rect x="350" y="60" width="10" height="10"/>
<rect x="360" y="60" width="10" height="10"/>
<rect x="80" y="70" width="10" height="10"/>
<rect x="100" y="70" width="10" height="10"/>
<rect x="120" y="70" width="10" height="10"/>
<rect x="160" y="70" width="10" height="10"/>
<rect x="170" y="70" width="10" height="10"/>
<rect x="180" y="70" width="10" height="10"/>
<rect x="190" y="70" width="10" height="10"/>
<rect x="220" y="70" width="10" height="10"/>
<rect x="230" y="70" width="10" height="10"/>
<rect x="240" y="70" width="10" height="10"/>
<rect x="0" y="80" width="10" height="10"/>
<rect x="40" y="80" width="10" height="10"/>
<rect x="60" y="80" width="10" height="10"/>
<rect x="70" y="80" width="10" height="10"/>
<rect x="80" y="80" width="10" height="10"/>
<rect x="110" y="80" width="10" height="10"/>
<rect x="120" y="80" width="10" height="10"/>
<rect x="130" y="80" width="10" height="10"/>
<rect x="140" y="80" width="10" height="10"/>
<rect x="150" y="80" width="10" height="10"/>
<rect x="180" y="80" width="10" height="10"/>
<rect x="190" y="80" width="10" height="10"/>
<rect x="220" y="80" width="10" height="10"/>
<rect x="240" y="80" width="10" height="10"/>
<rect x="260" y="80" width="10" height="10"/>
<rect x="270" y="80" width="10" height="10"/>
<rect x="290" y="80" width="10" height="10"/>
<rect x="300" y="80" width="10" height="10"/>
<rect x="310" y="80" width="10" height="10"/>
<rect x="320" y="80" width="10" height="10"/>
<rect x="330" y="80" width="10" height="10"/>
<rect x="360" y="80" width="10" height="10"/>
<rect x="0" y="90" width="10" height="10"/>
<rect x="10" y="90" width="10" height="10"/>
<rect x="80" y="90" width="10" height="10"/>
<rect x="90" y="90" width="10" height="10"/>
<rect x="110" y="90" width="10" height="10"/>
<rect x="120" y="90" width="10" height="10"/>
<rect x="130" y="90" width="10" height="10"/>
<rect x="140" y="90" width="10" height="10"/>
<rect x="160" y="90" width="10" height="10"/>
<rect x="170" y="90" width="10" height="10"/>
<rect x="190" y="90" width="10" height="10"/>
<rect x="200" y="90" width="10" height="10"/>
<rect x="210" y="90" width="10" height="10"/>
<rect x="270" y="90" width="10" height="10"/>
<rect x="280" y="90" width="10" height="10"/>
<rect x="290" y="90" width="10" height="10"/>
<rect x="310" y="90" width="10" height="10"/>
<rect x="320" y="90" width="10" height="10"/>
<rect x="350" y="90" width="10" height="10"/>
<rect x="10" y="100" width="10" height="10"/>
<rect x="30" y="100" width="10" height="10"/>
<rect x="60" y="100" width="10" height="10"/>
<rect x="90" y="100" width="10" height="10"/>
<rect x="120" y="100" width="10" height="10"/>
<rect x="160" y="100" width="10" height="10"/>
<rect x="180" y="100" width="10" height="10"/>
<rect x="200" y="100" width="10" height="10"/>
<rect x="260" y="100" width="10" height="10"/>
<rect x="270" y="100" width="10" height="10"/>
<rect x="310" y="100" width="10" height="10"/>
<rect x="330" y="100" width="10" height="10"/>
<rect x="340" y="100" width="10" height="10"/>
<rect x="0" y="110" width="10" height="10"/>
<rect x="20" y="110" width="10" height="10"/>
<rect x="30" y="110" width="10" height="10"/>
<rect x="40" y="110" width="10" height="10"/>
<rect x="50" y="110" width="10" height="10"/>
<rect x="70" y="110" width="10" height="10"/>
<rect x="80" y="110" width="10" height="10"/>
<rect x="90" y="110" width="10" height="10"/>
<rect x="100" y="110" width="10" height="10"/>
<rect x="110" y="110" width="10" height="10"/>
<rect x="120" y="110" width="10" height="10"/>
<rect x="130" y="110" width="10" height="10"/>
<rect x="140" y="110" width="10" height="10"/>
<rect x="170" y="110" width="10" height="10"/>
<rect x="210" y="110" width="10" height="10"/>
<rect x="240" y="110" width="10" height="10"/>
<rect x="300" y="110" width="10" height="10"/>
<rect x="330" y="110" width="10" height="10"/>
<rect x="340" y="110" width="10" height="10"/>
<rect x="350" y="110" width="10" height="10"/>
<rect x="0" y="120" width="10" height="10"/>
<rect x="10" y="120" width="10" height="10"/>
<rect x="20" y="120" width="10" height="10"/>
<rect x="50" y="120" width="10" height="10"/>
<rect x="60" y="120" width="10" height="10"/>
<rect x="70" y="120" width="10" height="10"/>
<rect x="90" y="120" width="10" height="10"/>
<rect x="120" y="120" width="10" height="10"/>
<rect x="150" y="120" width="10" height="10"/>
<rect x="170" y="120" width="10" height="10"/>
<rect x="180" y="120" width="10" height="10"/>
<rect x="190" y="120" width="10" height="10"/>
<rect x="210" y="120" width="10" height="10"/>
<rect x="220" y="120" width="10" height="10"/>
<rect x="230" y="120" width="10" height="10"/>
<rect x="270" y="120" width="10" height="10"/>
<rect x="290" y="120" width="10" height="10"/>
<rect x="300" y="120" width="10" height="10"/>
<rect x="340" y="120" width="10" height="10"/>
<rect x="350" y="120" width="10" height="10"/>
<rect x="360" y="120" width="10" height="10"/>
<rect x="0" y="130" width="10" height="10"/>
<rect x="10" y="130" width="10" height="10"/>
<rect x="20" y="130" width="10" height="10"/>
<rect x="70" y="130" width="10" height="10"/>
<rect x="100" y="130" width="10" height="10"/>
<rect x="120" y="130" width="10" height="10"/>
<rect x="130" y="130" width="10" height="10"/>
<rect x="150" y="130" width="10" height="10"/>
<rect x="170" y="130" width="10" height="10"/>
<rect x="200" y="130" width="10" height="10"/>
<rect x="230" y="130" width="10" height="10"/>
<rect x="260" y="130" width="10" height="10"/>
<rect x="270" y="130" width="10" height="10"/>
<rect x="280" y="130" width="10" height="10"/>
<rect x="290" y="130" width="10" height="10"/>
<rect x="320" y="130" width="10" height="10"/>
<rect x="330" y="130" width="10" height="10"/>
<rect x="350" y="130" width="10" height="10"/>
<rect x="0" y="140" width="10" height="10"/>
<rect x="20" y="140" width="10" height="10"/>
<rect x="30" y="140" width="10" height="10"/>
<rect x="50" y="140" width="10" height="10"/>
<rect x="60" y="140" width="10" height="10"/>
<rect x="70" y="140" width="10" height="10"/>
<rect x="90" y="140" width="10" height="10"/>
<rect x="100" y="140" width="10" height="10"/>
<rect x="110" y="140" width="10" height="10"/>
<rect x="120" y="140" width="10" height="10"/>
<rect x="150" y="140" width="10" height="10"/>
<rect x="160" y="140" width="10" height="10"/>
<rect x="180" y="140" width="10" height="10"/>
<rect x="210" y="140" width="10" height="10"/>
<rect x="220" y="140" width="10" height="10"/>
<rect x="230" y="140" width="10" height="10"/>
<rect x="260" y="140" width="10" height="10"/>
<rect x="270" y="140" width="10" height="10"/>
<rect x="290" y="140" width="10" height="10"/>
<rect x="310" y="140" width="10" height="10"/>
<rect x="320" y="140" width="10" height="10"/>
<rect x="330" y="140" width="10" height="10"/>
<rect x="340" y="140" width="10" height="10"/>
<rect x="350" y="140" width="10" height="10"/>
<rect x="10" y="150" width="10" height="10"/>
<rect x="20" y="150" width="10" height="10"/>
<rect x="30" y="150" width="10" height="10"/>
<rect x="40" y="150" width="10" height="10"/>
<rect x="90" y="150" width="10" height="10"/>
<rect x="100" y="150" width="10" height="10"/>
<rect x="110" y="150" width="10" height="10"/>
<rect x="130" y="150" width="10" height="10"/>
<rect x="160" y="150" width="10" height="10"/>
<rect x="210" y="150" width="10" height="10"/>
<rect x="240" y="150" width="10" height="10"/>
<rect x="260" y="150" width="10" height="10"/>
<rect x="300" y="150" width="10" height="10"/>
<rect x="310" y="150" width="10" height="10"/>
<rect x="320" y="150" width="10" height="10"/>
<rect x="340" y="150" width="10" height="10"/>
<rect x="350" y="150" width="10" height="10"/>
<rect x="360" y="150" width="10" height="10"/>
<rect x="0" y="160" width="10" height="10"/>
<rect x="30" y="160" width="10" height="10"/>
<rect x="40" y="160" width="10" height="10"/>
<rect x="60" y="160" width="10" height="10"/>
<rect x="80" y="160" width="10" height="10"/>
<rect x="90" y="160" width="10" height="10"/>
<rect x="140" y="160" width="10" height="10"/>
<rect x="160" y="160" width="10" height="10"/>
<rect x="190" y="160" width="10" height="10"/>
<rect x="200" y="160" width="10" height="10"/>
<rect x="230" y="160" width="10" height="10"/>
<rect x="240" y="160" width="10" height="10"/>
<rect x="270" y="160" width="10" height="10"/>
<rect x="280" y="160" width="10" height="10"/>
<rect x="300" y="160" width="10" height="10"/>
<rect x="330" y="160" width="10" height="10"/>
<rect x="340" y="160" width="10" height="10"/>
<rect x="360" y="160" width="10" height="10"/>
<rect x="10" y="170" width="10" height="10"/>
<rect x="20" y="170" width="10" height="10"/>
<rect x="40" y="170" width="10" height="10"/>
<rect x="50" y="170" width="10" height="10"/>
<rect x="80" y="170" width="10" height="10"/>
<rect x="100" y="170" width="10" height="10"/>
<rect x="120" y="170" width="10" height="10"/>
<rect x="130" y="170" width="10" height="10"/>
<rect x="180" y="170" width="10" height="10"/>
<rect x="190" y="170" width="10" height="10"/>
<rect x="210" y="170" width="10" height="10"/>
<rect x="220" y="170" width="10" height="10"/>
<rect x="240" y="170" width="10" height="10"/>
<rect x="250" y="170" width="10" height="10"/>
<rect x="270" y="170" width="10" height="10"/>
<rect x="290" y="170" width="10" height="10"/>
<rect x="310" y="170" width="10" height="10"/>
<rect x="320" y="170" width="10" height="10"/>
<rect x="330" y="170" width="10" height="10"/>
<rect x="340" y="170" width="10" height="10"/>
<rect x="350" y="170" width="10" height="10"/>
<rect x="0" y="180" width="10" height="10"/>
<rect x="10" y="180" width="10" height="10"/>
<rect x="50" y="180" width="10" height="10"/>
<rect x="60" y="180" width="10" height="10"/>
<rect x="80" y="180" width="10" height="10"/>
<rect x="90" y="180" width="10" height="10"/>
<rect x="110" y="180" width="10" height="10"/>
<rect x="120" y="180" width="10" height="10"/>
<rect x="130" y="180" width="10" height="10"/>
<rect x="150" y="180" width="10" height="10"/>
<rect x="170" y="180" width="10" height="10"/>
<rect x="180" y="180" width="10" height="10"/>
<rect x="190" y="180" width="10" height="10"/>
<rect x="210" y="180" width="10" height="10"/>
<rect x="230" y="180" width="10" height="10"/>
<rect x="240" y="180" width="10" height="10"/>
<rect x="260" y="180" width="10" height="10"/>
<rect x="270" y="180" width="10" height="10"/>
<rect x="280" y="180" width="10" height="10"/>
<rect x="320" y="180" width="10" height="10"/>
<rect x="330" y="180" width="10" height="10"/>
<rect x="10" y="190" width="10" height="10"/>
<rect x="20" y="190" width="10" height="10"/>
<rect x="40" y="190" width="10" height="10"/>
<rect x="70" y="190" width="10" height="10"/>
<rect x="80" y="190" width="10" height="10"/>
<rect x="100" y="190" width="10" height="10"/>
<rect x="130" y="190" width="10" height="10"/>
<rect x="150" y="190" width="10" height="10"/>
<rect x="160" y="190" width="10" height="10"/>
<rect x="170" y="190" width="10" height="10"/>
<rect x="180" y="190" width="10" height="10"/>
<rect x="190" y="190" width="10" height="10"/>
<rect x="200" y="190" width="10" height="10"/>
<rect x="210" y="190" width="10" height="10"/>
<rect x="240" y="190" width="10" height="10"/>
<rect x="260" y="190" width="10" height="10"/>
<rect x="280" y="190" width="10" height="10"/>
<rect x="300" y="190" width="10" height="10"/>
<rect x="330" y="190" width="10" height="10"/>
<rect x="340" y="190" width="10" height="10"/>
<rect x="350" y="190" width="10" height="10"/>
<rect x="10" y="200" width="10" height="10"/>
<rect x="30" y="200" width="10" height="10"/>
<rect x="40" y="200" width="10" height="10"/>
<rect x="60" y="200" width="10" height="10"/>
<rect x="70" y="200" width="10" height="10"/>
<rect x="100" y="200" width="10" height="10"/>
<rect x="160" y="200" width="10" height="10"/>
<rect x="170" y="200" width="10" height="10"/>
<rect x="180" y="200" width="10" height="10"/>
<rect x="200" y="200" width="10" height="10"/>
<rect x="210" y="200" width="10" height="10"/>
<rect x="220" y="200" width="10" height="10"/>
<rect x="240" y="200" width="10" height="10"/>
<rect x="260" y="200" width="10" height="10"/>
<rect x="270" y="200" width="10" height="10"/>
<rect x="290" y="200" width="10" height="10"/>
<rect x="300" y="200" width="10" height="10"/>
<rect x="310" y="200" width="10" height="10"/>
<rect x="330" y="200" width="10" height="10"/>
<rect x="340" y="200" width="10" height="10"/>
<rect x="0" y="210" width="10" height="10"/>
<rect x="20" y="210" width="10" height="10"/>
<rect x="40" y="210" width="10" height="10"/>
<rect x="50" y="210" width="10" height="10"/>
<rect x="70" y="210" width="10" height="10"/>
<rect x="90" y="210" width="10" height="10"/>
<rect x="100" y="210" width="10" height="10"/>
<rect x="110" y="210" width="10" height="10"/>
<rect x="140" y="210" width="10" height="10"/>
<rect x="150" y="210" width="10" height="10"/>
<rect x="190" y="210" width="10" height="10"/>
<rect x="210" y="210" width="10" height="10"/>
<rect x="230" y="210" width="10" height="10"/>
<rect x="240" y="210" width="10" height="10"/>
<rect x="260" y="210" width="10" height="10"/>
<rect x="270" y="210" width="10" height="10"/>
<rect x="280" y="210" width="10" height="10"/>
<rect x="290" y="210" width="10" height="10"/>
<rect x="310" y="210" width="10" height="10"/>
<rect x="320" y="210" width="10" height="10"/>
<rect x="350" y="210" width="10" height="10"/>
<rect x="10" y="220" width="10" height="10"/>
<rect x="20" y="220" width="10" height="10"/>
<rect x="30" y="220" width="10" height="10"/>
<rect x="50" y="220" width="10" height="10"/>
<rect x="60" y="220" width="10" height="10"/>
<rect x="70" y="220" width="10" height="10"/>
<rect x="80" y="220" width="10" height="10"/>
<rect x="90" y="220" width="10" height="10"/>
<rect x="100" y="220" width="10" height="10"/>
<rect x="130" y="220" width="10" height="10"/>
<rect x="140" y="220" width="10" height="10"/>
<rect x="150" y="220" width="10" height="10"/>
<rect x="160" y="220" width="10" height="10"/>
<rect x="170" y="220" width="10" height="10"/>
<rect x="200" y="220" width="10" height="10"/>
<rect x="230" y="220" width="10" height="10"/>
<rect x="240" y="220" width="10" height="10"/>
<rect x="250" y="220" width="10" height="10"/>
<rect x="270" y="220" width="10" height="10"/>
<rect x="290" y="220" width="10" height="10"/>
<rect x="310" y="220" width="10" height="10"/>
<rect x="320" y="220" width="10" height="10"/>
<rect x="330" y="220" width="10" height="10"/>
<rect x="340" y="220" width="10" height="10"/>
<rect x="350" y="220" width="10" height="10"/>
<rect x="20" y="230" width="10" height="10"/>
<rect x="30" y="230" width="10" height="10"/>
<rect x="40" y="230" width="10" height="10"/>
<rect x="80" y="230" width="10" height="10"/>
<rect x="100" y="230" width="10" height="10"/>
<rect x="110" y="230" width="10" height="10"/>
<rect x="120" y="230" width="10" height="10"/>
<rect x="130" y="230" width="10" height="10"/>
<rect x="170" y="230" width="10" height="10"/>
<rect x="180" y="230" width="10" height="10"/>
<rect x="190" y="230" width="10" height="10"/>
<rect x="200" y="230" width="10" height="10"/>
<rect x="220" y="230" width="10" height="10"/>
<rect x="230" y="230" width="10" height="10"/>
<rect x="240" y="230" width="10" height="10"/>
<rect x="300" y="230" width="10" height="10"/>
<rect x="310" y="230" width="10" height="10"/>
<rect x="320" y="230" width="10" height="10"/>
<rect x="340" y="230" width="10" height="10"/>
<rect x="10" y="240" width="10" height="10"/>
<rect x="40" y="240" width="10" height="10"/>
<rect x="60" y="240" width="10" height="10"/>
<rect x="70" y="240" width="10" height="10"/>
<rect x="120" y="240" width="10" height="10"/>
<rect x="130" y="240" width="10" height="10"/>
<rect x="140" y="240" width="10" height="10"/>
<rect x="180" y="240" width="10" height="10"/>
<rect x="220" y="240" width="10" height="10"/>
<rect x="230" y="240" width="10" height="10"/>
<rect x="280" y="240" width="10" height="10"/>
<rect x="300" y="240" width="10" height="10"/>
<rect x="330" y="240" width="10" height="10"/>
<rect x="340" y="240" width="10" height="10"/>
<rect x="360" y="240" width="10" height="10"/>
<rect x="10" y="250" width="10" height="10"/>
<rect x="30" y="250" width="10" height="10"/>
<rect x="40" y="250" width="10" height="10"/>
<rect x="50" y="250" width="10" height="10"/>
<rect x="90" y="250" width="10" height="10"/>
<rect x="130" y="250" width="10" height="10"/>
<rect x="140" y="250" width="10" height="10"/>
<rect x="160" y="250" width="10" height="10"/>
<rect x="190" y="250" width="10" height="10"/>
<rect x="200" y="250" width="10" height="10"/>
<rect x="260" y="250" width="10" height="10"/>
<rect x="270" y="250" width="10" height="10"/>
<rect x="280" y="250" width="10" height="10"/>
<rect x="310" y="250" width="10" height="10"/>
<rect x="320" y="250" width="10" height="10"/>
<rect x="330" y="250" width="10" height="10"/>
<rect x="0" y="260" width="10" height="10"/>
<rect x="10" y="260" width="10" height="10"/>
<rect x="20" y="260" width="10" height="10"/>
<rect x="50" y="260" width="10" height="10"/>
<rect x="60" y="260" width="10" height="10"/>
<rect x="80" y="260" width="10" height="10"/>
<rect x="100" y="260" width="10" height="10"/>
<rect x="160" y="260" width="10" height="10"/>
<rect x="170" y="260" width="10" height="10"/>
<rect x="180" y="260" width="10" height="10"/>
<rect x="200" y="260" width="10" height="10"/>
<rect x="210" y="260" width="10" height="10"/>
<rect x="220" y="260" width="10" height="10"/>
<rect x="230" y="260" width="10" height="10"/>
<rect x="250" y="260" width="10" height="10"/>
<rect x="260" y="260" width="10" height="10"/>
<rect x="270" y="260" width="10" height="10"/>
<rect x="280" y="260" width="10" height="10"/>
<rect x="330" y="260" width="10" height="10"/>
<rect x="0" y="270" width="10" height="10"/>
<rect x="10" y="270" width="10" height="10"/>
<rect x="30" y="270" width="10" height="10"/>
<rect x="50" y="270" width="10" height="10"/>
<rect x="70" y="270" width="10" height="10"/>
<rect x="120" y="270" width="10" height="10"/>
<rect x="130" y="270" width="10" height="10"/>
<rect x="140" y="270" width="10" height="10"/>
<rect x="170" y="270" width="10" height="10"/>
<rect x="210" y="270" width="10" height="10"/>
<rect x="230" y="270" width="10" height="10"/>
<rect x="240" y="270" width="10" height="10"/>
<rect x="270" y="270" width="10" height="10"/>
<rect x="280" y="270" width="10" height="10"/>
<rect x="300" y="270" width="10" height="10"/>
<rect x="330" y="270" width="10" height="10"/>
<rect x="340" y="270" width="10" height="10"/>
<rect x="60" y="280" width="10" height="10"/>
<rect x="70" y="280" width="10" height="10"/>
<rect x="100" y="280" width="10" height="10"/>
<rect x="110" y="280" width="10" height="10"/>
<rect x="130" y="280" width="10" height="10"/>
<rect x="150" y="280" width="10" height="10"/>
<rect x="160" y="280" width="10" height="10"/>
<rect x="170" y="280" width="10" height="10"/>
<rect x="180" y="280" width="10" height="10"/>
<rect x="190" y="280" width="10" height="10"/>
<rect x="200" y="280" width="10" height="10"/>
<rect x="210" y="280" width="10" height="10"/>
<rect x="220" y="280" width="10" height="10"/>
<rect x="240" y="280" width="10" height="10"/>
<rect x="270" y="280" width="10" height="10"/>
<rect x="280" y="280" width="10" height="10"/>
<rect x="290" y="280" width="10" height="10"/>
<rect x="300" y="280" width="10" height="10"/>
<rect x="310" y="280" width="10" height="10"/>
<rect x="320" y="280" width="10" height="10"/>
<rect x="330" y="280" width="10" height="10"/>
<rect x="340" y="280" width="10" height="10"/>
<rect x="360" y="280" width="10" height="10"/>
<rect x="80" y="290" width="10" height="10"/>
<rect x="90" y="290" width="10" height="10"/>
<rect x="110" y="290" width="10" height="10"/>
<rect x="120" y="290" width="10" height="10"/>
<rect x="130" y="290" width="10" height="10"/>
<rect x="140" y="290" width="10" height="10"/>
<rect x="150" y="290" width="10" height="10"/>
<rect x="170" y="290" width="10" height="10"/>
<rect x="200" y="290" width="10" height="10"/>
<rect x="220" y="290" width="10" height="10"/>
<rect x="230" y="290" width="10" height="10"/>
<rect x="260" y="290" width="10" height="10"/>
<rect x="280" y="290" width="10" height="10"/>
<rect x="320" y="290" width="10" height="10"/>
<rect x="350" y="290" width="10" height="10"/>
<rect x="0" y="300" width="10" height="10"/>
<rect x="10" y="300" width="10" height="10"/>
<rect x="20" y="300" width="10" height="10"/>
<rect x="30" y="300" width="10" height="10"/>
<rect x="40" y="300" width="10" height="10"/>
<rect x="50" y="300" width="10" height="10"/>
<rect x="60" y="300" width="10" height="10"/>
<rect x="80" y="300" width="10" height="10"/>
<rect x="120" y="300" width="10" height="10"/>
<rect x="150" y="300" width="10" height="10"/>
<rect x="180" y="300" width="10" height="10"/>
<rect x="200" y="300" width="10" height="10"/>
<rect x="210" y="300" width="10" height="10"/>
<rect x="220" y="300" width="10" height="10"/>
<rect x="230" y="300" width="10" height="10"/>
<rect x="240" y="300" width="10" height="10"/>
<rect x="280" y="300" width="10" height="10"/>
<rect x="300" y="300" width="10" height="10"/>
<rect x="320" y="300" width="10" height="10"/>
<rect x="350" y="300" width="10" height="10"/>
<rect x="0" y="310" width="10" height="10"/>
<rect x="60" y="310" width="10" height="10"/>
<rect x="90" y="310" width="10" height="10"/>
<rect x="100" y="310" width="10" height="10"/>
<rect x="150" y="310" width="10" height="10"/>
<rect x="160" y="310" width="10" height="10"/>
<rect x="190" y="310" width="10" height="10"/>
<rect x="210" y="310" width="10" height="10"/>
<rect x="240" y="310" width="10" height="10"/>
<rect x="280" y="310" width="10" height="10"/>
<rect x="320" y="310" width="10" height="10"/>
<rect x="330" y="310" width="10" height="10"/>
<rect x="340" y="310" width="10" height="10"/>
<rect x="350" y="310" width="10" height="10"/>
<rect x="0" y="320" width="10" height="10"/>
<rect x="20" y="320" width="10" height="10"/>
<rect x="30" y="320" width="10" height="10"/>
<rect x="40" y="320" width="10" height="10"/>
<rect x="60" y="320" width="10" height="10"/>
<rect x="80" y="320" width="10" height="10"/>
<rect x="90" y="320" width="10" height="10"/>
<rect x="100" y="320" width="10" height="10"/>
<rect x="120" y="320" width="10" height="10"/>
<rect x="160" y="320" width="10" height="10"/>
<rect x="190" y="320" width="10" height="10"/>
<rect x="200" y="320" width="10" height="10"/>
<rect x="230" y="320" width="10" height="10"/>
<rect x="260" y="320" width="10" height="10"/>
<rect x="280" y="320" width="10" height="10"/>
<rect x="290" y="320" width="10" height="10"/>
<rect x="300" y="320" width="10" height="10"/>
<rect x="310" y="320" width="10" height="10"/>
<rect x="320" y="320" width="10" height="10"/>
<rect x="330" y="320" width="10" height="10"/>
<rect x="340" y="320" width="10" height="10"/>
<rect x="350" y="320" width="10" height="10"/>
<rect x="0" y="330" width="10" height="10"/>
<rect x="20" y="330" width="10" height="10"/>
<rect x="30" y="330" width="10" height="10"/>
<rect x="40" y="330" width="10" height="10"/>
<rect x="60" y="330" width="10" height="10"/>
<rect x="90" y="330" width="10" height="10"/>
<rect x="120" y="330" width="10" height="10"/>
<rect x="180" y="330" width="10" height="10"/>
<rect x="190" y="330" width="10" height="10"/>
<rect x="220" y="330" width="10" height="10"/>
<rect x="250" y="330" width="10" height="10"/>
<rect x="260" y="330" width="10" height="10"/>
<rect x="280" y="330" width="10" height="10"/>
<rect x="300" y="330" width="10" height="10"/>
<rect x="310" y="330" width="10" height="10"/>
<rect x="330" y="330" width="10" height="10"/>
<rect x="360" y="330" width="10" height="10"/>
<rect x="0" y="340" width="10" height="10"/>
<rect x="20" y="340" width="10" height="10"/>
<rect x="30" y="340" width="10" height="10"/>
<rect x="40" y="340" width="10" height="10"/>
<rect x="60" y="340" width="10" height="10"/>
<rect x="100" y="340" width="10" height="10"/>
<rect x="110" y="340" width="10" height="10"/>
<rect x="140" y="340" width="10" height="10"/>
<rect x="150" y="340" width="10" height="10"/>
<rect x="180" y="340" width="10" height="10"/>
<rect x="190" y="340" width="10" height="10"/>
<rect x="210" y="340" width="10" height="10"/>
<rect x="220" y="340" width="10" height="10"/>
<rect x="230" y="340" width="10" height="10"/>
<rect x="240" y="340" width="10" height="10"/>
<rect x="250" y="340" width="10" height="10"/>
<rect x="290" y="340" width="10" height="10"/>
<rect x="300" y="340" width="10" height="10"/>
<rect x="330" y="340" width="10" height="10"/>
<rect x="340" y="340" width="10" height="10"/>
<rect x="0" y="350" width="10" height="10"/>
<rect x="60" y="350" width="10" height="10"/>
<rect x="100" y="350" width="10" height="10"/>
<rect x="110" y="350" width="10" height="10"/>
<rect x="130" y="350" width="10" height="10"/>
<rect x="140" y="350" width="10" height="10"/>
<rect x="150" y="350" width="10" height="10"/>
<rect x="160" y="350" width="10" height="10"/>
<rect x="170" y="350" width="10" height="10"/>
<rect x="190" y="350" width="10" height="10"/>
<rect x="200" y="350" width="10" height="10"/>
<rect x="210" y="350" width="10" height="10"/>
<rect x="220" y="350" width="10" height="10"/>
<rect x="230" y="350" width="10" height="10"/>
<rect x="240" y="350" width="10" height="10"/>
<rect x="260" y="350" width="10" height="10"/>
<rect x="300" y="350" width="10" height="10"/>
<rect x="320" y="350" width="10" height="10"/>
<rect x="330" y="350" width="10" height="10"/>
<rect x="340" y="350" width="10" height="10"/>
<rect x="350" y="350" width="10" height="10"/>
<rect x="0" y="360" width="10" height="10"/>
<rect x="10" y="360" width="10" height="10"/>
<rect x="20" y="360" width="10" height="10"/>
<rect x="30" y="360" width="10" height="10"/>
<rect x="40" y="360" width="10" height="10"/>
<rect x="50" y="360" width="10" height="10"/>
<rect x="60" y="360" width="10" height="10"/>
<rect x="80" y="360" width="10" height="10"/>
<rect x="90" y="360" width="10" height="10"/>
<rect x="100" y="360" width="10" height="10"/>
<rect x="110" y="360" width="10" height="10"/>
<rect x="120" y="360" width="10" height="10"/>
<rect x="130" y="360" width="10" height="10"/>
<rect x="140" y="360" width="10" height="10"/>
<rect x="160" y="360" width="10" height="10"/>
<rect x="170" y="360" width="10" height="10"/>
<rect x="180" y="360" width="10" height="10"/>
<rect x="210" y="360" width="10" height="10"/>
<rect x="220" y="360" width="10" height="10"/>
<rect x="230" y="360" width="10" height="10"/>
<rect x="240" y="360" width="10" height="10"/>
<rect x="300" y="360" width="10" height="10"/>
<rect x="310" y="360" width="10" height="10"/>
<rect x="330" y="360" width="10" height="10"/>
<rect x="340" y="360" width="10" height="10"/>
<rect x="350" y="360" width="10" height="10"/>
<rect x="360" y="360" width="10" height="10"/>
</g></svg>