<svg width="91" height="85" viewBox="0 0 91 85" fill="none" xmlns="http://www.w3.org/2000/svg">
<path d="M15.4075 50.562L4.12927 39.8032L5.13433 39.2785L16.4125 50.0373L15.4075 50.562Z" fill="black"/>
<path d="M19.6223 35.4582L22.9941 46.4763L21.9099 46.8081L18.5382 35.79L15.6639 36.6696L15.3476 35.6359L22.1803 33.5449L22.4966 34.5787L19.6223 35.4582Z" fill="black"/>
<path d="M34.6315 43.9923L30.485 39.152L28.9451 39.3724L29.7071 44.6971L28.5847 44.8577L26.7992 32.3813L30.7579 31.8148C31.1813 31.7542 31.5902 31.7785 31.9847 31.8878C32.3783 31.9913 32.7343 32.1623 33.0525 32.4009C33.3708 32.6394 33.6352 32.936 33.8458 33.2906C34.0613 33.6386 34.1994 34.0243 34.26 34.4477L34.4044 35.457C34.465 35.8804 34.4411 36.2922 34.3326 36.6925C34.2291 37.0861 34.0581 37.4421 33.8195 37.7603C33.581 38.0786 33.2877 38.3455 32.9397 38.561C32.5909 38.7707 32.2048 38.9059 31.7814 38.9665L35.9279 43.8068L34.6315 43.9923ZM33.1376 34.6083C33.0978 34.3299 33.0086 34.0793 32.8702 33.8564C32.7309 33.6277 32.5585 33.4364 32.353 33.2823C32.1466 33.1224 31.9141 33.0077 31.6556 32.9382C31.4028 32.8678 31.1373 32.8525 30.8588 32.8924L28.0747 33.2908L28.7919 38.3023L31.576 37.9038C31.8544 37.864 32.1051 37.7748 32.328 37.6364C32.5566 37.4971 32.748 37.3247 32.9021 37.1192C33.0553 36.9078 33.1671 36.6758 33.2375 36.423C33.307 36.1645 33.3219 35.896 33.282 35.6176L33.1376 34.6083Z" fill="black"/>
<path d="M42.0182 37.6012L41.9137 43.6296L40.78 43.6099L40.8843 37.5991L37.7384 30.9517L38.9599 30.9729L41.4614 36.2554L44.1446 31.0629L45.3661 31.084L42.0182 37.6012Z" fill="black"/>
<path d="M53.177 44.7012L55.8158 32.377L56.9244 32.6144L54.2857 44.9386L53.177 44.7012Z" fill="black"/>
<path d="M64.8108 35.8476L61.1471 46.7721L60.0722 46.4116L63.7359 35.4871L60.886 34.5313L61.2298 33.5064L68.0044 35.7784L67.6607 36.8034L64.8108 35.8476Z" fill="black"/>
<path d="M69.4714 51.3431L81.0546 40.9133L82.0441 41.4667L70.4609 51.8965L69.4714 51.3431Z" fill="black"/>
</svg>
